<svg xmlns="http://www.w3.org/2000/svg" viewBox="0 0 64 64" fill="none" stroke="#ffd76b" stroke-width="1.6" stroke-linecap="round" stroke-linejoin="round" role="img" aria-label="龙之徽记">
  <circle cx="32" cy="32" r="26" stroke-opacity="0.4"/>
  <path d="M10 32c4-10 14-14 22-14s18 4 22 14c-4 10-14 14-22 14s-18-4-22-14Z"/>
  <ellipse cx="32" cy="32" rx="6" ry="12" fill="#c8431a" fill-opacity="0.55"/>
  <path d="M32 20v24" stroke="#0a0805" stroke-width="3"/>
  <path d="M14 26c2 1 4 1 6 0M50 26c-2 1-4 1-6 0M14 38c2-1 4-1 6 0M50 38c-2-1-4-1-6 0" stroke-opacity="0.55"/>
  <circle cx="36" cy="26" r="1.4" fill="#fff" fill-opacity="0.85"/>
</svg>

