<svg xmlns="http://www.w3.org/2000/svg" viewBox="0 0 64 64" fill="none" stroke="#ffd76b" stroke-width="1.6" stroke-linecap="round" stroke-linejoin="round" role="img" aria-label="护盾印记">
  <path d="M32 6 L52 14 L52 32 C52 44 42 54 32 58 C22 54 12 44 12 32 L12 14 Z" fill="#ffd76b" fill-opacity="0.14"/>
  <path d="M32 6 L52 14 L52 32 C52 44 42 54 32 58 C22 54 12 44 12 32 L12 14 Z"/>
  <path d="M32 12 L46 18 L46 32 C46 41 39 49 32 52 C25 49 18 41 18 32 L18 18 Z" stroke-opacity="0.55"/>
  <path d="M32 22 L32 44 M22 33 L42 33"/>
  <circle cx="32" cy="33" r="4" fill="#c83a14" fill-opacity="0.55"/>
  <circle cx="20" cy="16" r="1.2" fill="#ffd76b"/>
  <circle cx="44" cy="16" r="1.2" fill="#ffd76b"/>
  <circle cx="20" cy="36" r="1" fill="#ffd76b"/>
  <circle cx="44" cy="36" r="1" fill="#ffd76b"/>
</svg>

