<svg xmlns="http://www.w3.org/2000/svg" viewBox="0 0 64 64" fill="none" stroke="currentColor" stroke-width="2" stroke-linecap="round" stroke-linejoin="round" role="img" aria-label="恶魔猎手">
  <circle cx="32" cy="32" r="28" stroke-opacity="0.35" stroke-width="1"/>
  <circle cx="32" cy="32" r="24" stroke-opacity="0.6"/>
  <!-- Horns -->
  <path d="M20 18c-4-4-6-2-6 2 2 0 4 1 6 4M44 18c4-4 6-2 6 2-2 0-4 1-6 4"/>
  <!-- Blindfold band -->
  <path d="M16 30h32" stroke-width="3"/>
  <!-- Glaive crescents -->
  <path d="M14 44c4-2 8-2 12 0M50 44c-4-2-8-2-12 0"/>
  <path d="M16 48c2 2 6 4 10 4M48 48c-2 2-6 4-10 4"/>
  <!-- Glow eyes hidden by blindfold but show fel slits -->
  <path d="M24 30v2M40 30v2" stroke-width="2.5"/>
  <!-- Chin -->
  <path d="M26 38c1 4 3 6 6 6s5-2 6-6"/>
</svg>
