<svg xmlns="http://www.w3.org/2000/svg" viewBox="0 0 64 64" fill="none" stroke="currentColor" stroke-width="2" stroke-linecap="round" stroke-linejoin="round" role="img" aria-label="德鲁伊">
  <circle cx="32" cy="32" r="28" stroke-opacity="0.35" stroke-width="1"/>
  <circle cx="32" cy="32" r="24" stroke-opacity="0.6"/>
  <!-- Crescent moon -->
  <path d="M40 18a14 14 0 1 0 0 28 11 11 0 1 1 0-28Z" fill="currentColor" fill-opacity="0.15"/>
  <!-- Leaf flourish -->
  <path d="M22 46c-4-6-2-12 4-16 1 6-1 12-4 16Z"/>
  <path d="M24 38c2 1 4 1 6 0"/>
  <!-- Stars -->
  <path d="M48 22l1 2 2 1-2 1-1 2-1-2-2-1 2-1Z" fill="currentColor"/>
  <circle cx="46" cy="34" r="1" fill="currentColor"/>
  <circle cx="50" cy="40" r="0.8" fill="currentColor"/>
</svg>
