<svg xmlns="http://www.w3.org/2000/svg" viewBox="0 0 64 64" fill="none" stroke="currentColor" stroke-width="2" stroke-linecap="round" stroke-linejoin="round" role="img" aria-label="唤魔师">
  <circle cx="32" cy="32" r="28" stroke-opacity="0.35" stroke-width="1"/>
  <circle cx="32" cy="32" r="24" stroke-opacity="0.6"/>
  <!-- Dragon eye -->
  <path d="M14 32c4-8 12-12 18-12s14 4 18 12c-4 8-12 12-18 12s-14-4-18-12Z"/>
  <ellipse cx="32" cy="32" rx="6" ry="10" fill="currentColor" fill-opacity="0.2"/>
  <path d="M32 22v20" stroke-width="2.5"/>
  <!-- Scale arcs -->
  <path d="M20 22c2 2 4 3 6 3M44 22c-2 2-4 3-6 3M20 42c2-2 4-3 6-3M44 42c-2-2-4-3-6-3" stroke-opacity="0.6"/>
</svg>
