<svg xmlns="http://www.w3.org/2000/svg" viewBox="0 0 64 64" fill="none" stroke="currentColor" stroke-width="2" stroke-linecap="round" stroke-linejoin="round" role="img" aria-label="术士">
  <circle cx="32" cy="32" r="28" stroke-opacity="0.35" stroke-width="1"/>
  <circle cx="32" cy="32" r="24" stroke-opacity="0.6"/>
  <!-- Pentagram -->
  <path d="M32 14 L38 30 L54 30 L41 40 L46 56 L32 46 L18 56 L23 40 L10 30 L26 30 Z" fill="currentColor" fill-opacity="0.12"/>
  <!-- Skull center -->
  <path d="M26 30c0-4 3-6 6-6s6 2 6 6c0 3-1 4-1 6v2l-2 1h-6l-2-1v-2c0-2-1-3-1-6Z"/>
  <circle cx="30" cy="32" r="1.4" fill="currentColor"/>
  <circle cx="34" cy="32" r="1.4" fill="currentColor"/>
  <path d="M30 38h4" stroke-width="1.4"/>
</svg>
