<svg xmlns="http://www.w3.org/2000/svg" viewBox="0 0 480 36" fill="none" stroke="#c9aa6a" stroke-width="1" stroke-linecap="round" role="img" aria-label="装饰分隔">
  <defs>
    <linearGradient id="line" x1="0" x2="1" y1="0" y2="0">
      <stop offset="0%" stop-color="#c9aa6a" stop-opacity="0"/>
      <stop offset="50%" stop-color="#ffd76b" stop-opacity="1"/>
      <stop offset="100%" stop-color="#c9aa6a" stop-opacity="0"/>
    </linearGradient>
    <radialGradient id="gemFill" cx="50%" cy="40%" r="60%">
      <stop offset="0%" stop-color="#fff0a8"/>
      <stop offset="60%" stop-color="#ffd76b"/>
      <stop offset="100%" stop-color="#8c7339"/>
    </radialGradient>
  </defs>
  <path d="M0 18 L200 18" stroke="url(#line)" stroke-width="1.2"/>
  <path d="M280 18 L480 18" stroke="url(#line)" stroke-width="1.2"/>
  <path d="M200 18c4-4 12-4 16 0M280 18c-4-4-12-4-16 0" stroke="#c9aa6a" stroke-opacity="0.7"/>
  <path d="M210 18c2-2 4-2 6 0M270 18c-2-2-4-2-6 0" stroke="#c9aa6a" stroke-opacity="0.5"/>
  <path d="M240 6 L252 18 L240 30 L228 18 Z" fill="url(#gemFill)" stroke="#8c7339" stroke-opacity="0.9"/>
  <path d="M240 6 L240 30 M228 18 L252 18" stroke="#3a2a14" stroke-opacity="0.55" stroke-width="0.8"/>
  <path d="M234 12 L246 12 L240 18 Z" fill="#fff0a8" fill-opacity="0.55"/>
  <circle cx="216" cy="18" r="1.4" fill="#ffd76b"/>
  <circle cx="264" cy="18" r="1.4" fill="#ffd76b"/>
</svg>

