<svg xmlns="http://www.w3.org/2000/svg" viewBox="0 0 600 360" preserveAspectRatio="xMidYMid slice" role="img" aria-label="羊皮纸纹理">
  <defs>
    <radialGradient id="parch" cx="50%" cy="50%" r="70%">
      <stop offset="0%" stop-color="#1a1208"/>
      <stop offset="60%" stop-color="#0e0905"/>
      <stop offset="100%" stop-color="#050402"/>
    </radialGradient>
    <pattern id="grain" width="180" height="180" patternUnits="userSpaceOnUse">
      <rect width="180" height="180" fill="transparent"/>
      <circle cx="20" cy="35" r="0.7" fill="#d8a64a" opacity="0.05"/>
      <circle cx="78" cy="12" r="0.5" fill="#d8a64a" opacity="0.04"/>
      <circle cx="120" cy="55" r="0.6" fill="#d8a64a" opacity="0.05"/>
      <circle cx="44" cy="98" r="0.5" fill="#d8a64a" opacity="0.04"/>
      <circle cx="160" cy="120" r="0.7" fill="#d8a64a" opacity="0.05"/>
      <circle cx="92" cy="160" r="0.5" fill="#d8a64a" opacity="0.04"/>
      <circle cx="40" cy="160" r="0.4" fill="#d8a64a" opacity="0.04"/>
      <circle cx="150" cy="20" r="0.5" fill="#d8a64a" opacity="0.04"/>
    </pattern>
  </defs>
  <rect width="600" height="360" fill="url(#parch)"/>
  <rect width="600" height="360" fill="url(#grain)"/>
  <!-- Crackle lines -->
  <g stroke="#d8a64a" stroke-width="0.4" fill="none" opacity="0.06">
    <path d="M40 80 Q120 100 200 70 T380 90 T560 60"/>
    <path d="M20 200 Q120 180 240 220 T440 200 T580 240"/>
    <path d="M60 320 Q160 300 260 330 T460 310"/>
  </g>
</svg>
